<?xml version="1.0" encoding="utf-8"?>
<!-- Generator: Adobe Illustrator 19.1.0, SVG Export Plug-In . SVG Version: 6.00 Build 0)  -->
<!DOCTYPE svg PUBLIC "-//W3C//DTD SVG 1.1//EN" "http://www.w3.org/Graphics/SVG/1.1/DTD/svg11.dtd">
<svg version="1.1" id="Layer_1" xmlns="http://www.w3.org/2000/svg" xmlns:xlink="http://www.w3.org/1999/xlink" x="0px" y="0px"
	 viewBox="-41 -5.8 80 43" style="enable-background:new -41 -5.8 80 43;" xml:space="preserve" width="80" height="43" fill="#4d4f52">
<g>
	<polygon points="35.3,5.7 35.3,33.5 13.4,33.5 -18.8,33.5 -27.4,33.5 -31.1,37.2 -22.5,37.2 13.4,37.2 39,37.2 39,2 	"/>
	<polygon points="-41,-5.4 -41,29.8 -37.3,26.1 -37.3,-1.7 -15.3,-1.7 16.8,-1.7 25.5,-1.7 29.2,-5.4 	"/>
	<g>
		<path d="M20.1,8.2l-2.9,4.5l-2.8-4.5H9.3l5.2,7.8L9,24.1h5l3.1-4.8l3.1,4.8h5.1l-5.5-8.2L25,8.1h-4.9V8.2z M-4,15.8v-3.9h2.9
			c1.5,0,2.4,0.6,2.4,1.9l0,0c0,1.2-0.9,1.9-2.4,1.9H-4V15.8z M-8.4,24.1H-4v-4.8h2l3.2,4.8h5.1l-3.9-5.5c2-0.8,3.3-2.5,3.3-4.9l0,0
			c0-1.6-0.5-2.8-1.4-3.7C3.2,8.9,1.5,8.3-0.9,8.3h-7.6L-8.4,24.1L-8.4,24.1z M-21.9,24.1h4.4v-12h4.8V8.2h-14v3.9h4.8
			C-21.9,12.1-21.9,24.1-21.9,24.1z"/>
	</g>
</g>
</svg>
